<svg xmlns="http://www.w3.org/2000/svg" xmlns:xlink="http://www.w3.org/1999/xlink" xmlns:lucid="lucid" width="1341.5" height="761.88"><g transform="translate(221 140)" lucid:page-tab-id="0_0"><path d="M-500-500h2000v1500H-500z" fill="#fff"/><path d="M100 106a6 6 0 0 1 6-6h988a6 6 0 0 1 6 6v488a6 6 0 0 1-6 6H106a6 6 0 0 1-6-6z" fill="#edf5ff"/><path d="M100.9 102.88l.25-.4.6-.72.72-.6.4-.26m1.73-.72l.46-.1.94-.08h1.5m2 0h3m1.98 0h3m2 0h3m1.98 0h3m2 0h3m1.98 0h3m2 0h3m1.98 0h3m2 0h3m1.98 0h3m2 0h3m1.98 0h3m2 0h3m1.98 0h3m2 0h2.98m2 0h3m2 0h2.98m2 0h3m2 0h3m1.98 0h3m2 0h2.98m2 0h3m2 0h2.98m2 0h3m2 0h2.98m2 0h3m2 0h2.98m2 0h3m2 0h2.98m2 0h3m2 0h2.98m2 0h3m2 0h2.98m2 0h3m2 0h2.98m2 0h3m2 0h2.98m2 0h3m2 0h2.98m2 0h3m2 0h2.98m2 0h3m2 0h2.98m2 0h3m2 0h2.98m2 0h3m2 0H342m2 0h3m2 0H352m2 0h3m2 0h2.98m2 0h3m2 0h2.98m2 0h3m2 0h2.98m2 0h3m2 0h2.98m2 0h3m2 0h2.98m2 0h3m2 0h2.98m2 0h3m2 0h2.98m2 0h3m2 0h2.98m2 0h3m2 0h2.98m2 0h3m2 0h2.98m2 0h3m2 0h2.98m2 0h3m2 0h2.98m2 0h3m2 0h2.98m2 0h3m2 0h2.98m2 0h3m1.98 0h3m2 0h3m2 0h2.98m2 0h3m2 0h2.98m2 0h3m1.98 0h3m2 0h3m1.98 0h3m2 0h3m1.98 0h3m2 0h3m1.98 0h3m2 0h3m1.98 0h3m2 0h3m1.98 0h3m2 0h3m1.98 0h3m2 0h3m1.98 0h3m2 0h3m1.98 0h3m2 0h3m1.98 0h3m2 0h3m1.98 0h3m2 0h3m1.98 0h3m2 0h3m1.98 0h3m2 0h3m1.98 0h3m2 0h3m1.98 0h3m2 0h3m1.98 0h3m2 0h3m1.98 0h3m2 0h2.98m2 0h3m2 0h3m1.98 0h3m2 0h3m1.98 0h3m2 0h2.98m2 0h3m2 0h2.98m2 0h3m2 0h2.98m2 0h3m2 0h2.98m2 0h3m2 0h2.98m2 0h3m2 0h2.98m2 0h3m2 0h2.98m2 0h3m2 0h2.98m2 0h3m2 0h2.98m2 0h3m2 0h2.98m2 0h3m2 0h2.98m2 0h3m2 0H836m2 0h3m2 0H846m2 0h3m2 0h2.98m2 0h3m2 0h2.98m2 0h3m2 0h2.98m2 0h3m2 0h2.98m2 0h3m2 0h2.98m2 0h3m2 0h2.98m2 0h3m2 0h2.98m2 0h3m2 0h2.98m2 0h3m2 0h2.98m2 0h3m2 0h2.98m2 0h3m2 0h2.98m2 0h3m2 0h2.98m2 0h3m2 0h2.98m2 0h3m2 0h2.98m2 0h3m2 0h2.98m2 0h3m1.98 0h3m2 0h3m2 0h2.98m2 0h3m1.98 0h3m2 0h3m1.98 0h3m2 0h3m1.98 0h3m2 0h3m1.98 0h3m2 0h3m1.98 0h3m2 0h3m1.98 0h3m2 0h3m1.98 0h3m2 0h3m1.98 0h1.5l.94.07.46.1m1.72.73l.4.25.72.6.6.72.26.4m.72 1.73l.1.46.08.94v1.5m0 2v2.97m0 2v2.98m0 2v2.98m0 2v2.98m0 2v3m0 1.98v3m0 1.98v3m0 1.98v3m0 1.98v3m0 1.98v3m0 1.98v3m0 1.98v3m0 1.98v3m0 1.98v3m0 1.98v3m0 1.98v3m0 1.98v3m0 1.98v3m0 1.98v3m0 1.98v3m0 1.98v2.98m0 2v2.98m0 2v2.98m0 2V227m0 2v2.98m0 2v2.98m0 2v2.98m0 2v2.98m0 2v2.98m0 2v2.98m0 2v2.98m0 2v2.98m0 2v2.98m0 2v2.98m0 2v2.98m0 2v2.98m0 2v2.98m0 2v2.98m0 2v2.98m0 2v2.98m0 2v2.98m0 2v2.98m0 2v2.98m0 2v2.98m0 2v2.98m0 2v2.98m0 2v2.98m0 2v2.97m0 2v3m0 2v2.97m0 2v2.98m0 2v2.98m0 2v2.98m0 2v3m0 1.98v3m0 1.98v3m0 1.98v3m0 1.98v3m0 1.98v3m0 1.98v3m0 1.98v3m0 1.98v3m0 1.98v3m0 1.98v3m0 1.98v3m0 1.98v3m0 1.98v3m0 1.98v3m0 1.98v3m0 1.98v3m0 1.98v3m0 1.98v2.98m0 2V471m0 2v2.98m0 2v2.98m0 2v2.98m0 2v2.98m0 2v2.98m0 2v2.98m0 2v2.98m0 2v2.98m0 2v2.98m0 2v2.98m0 2v2.98m0 2v2.98m0 2v2.98m0 2v2.98m0 2v2.98m0 2v2.98m0 2v2.98m0 2v2.98m0 2v2.98m0 2v2.98m0 2v2.98m0 2v2.97m0 2v3m0 1.98v2.98m0 2v1.5l-.07.94-.1.46m-.73 1.73l-.25.4-.6.7-.72.62-.4.25m-1.73.72l-.46.1-.94.08h-1.5m-2 0h-3m-1.98 0h-3m-2 0h-3m-1.98 0h-3m-2 0h-3m-1.98 0h-3m-2 0h-3m-1.98 0h-3m-2 0h-3m-1.98 0h-3m-2 0h-3m-1.98 0h-3m-2 0h-3m-1.98 0h-3m-2 0h-3m-1.98 0h-3m-2 0h-3m-1.98 0h-3m-2 0h-2.98m-2 0h-3m-2 0h-3m-1.98 0h-3m-2 0h-3m-1.98 0h-3m-2 0h-2.98m-2 0h-3m-2 0h-2.98m-2 0h-3m-2 0h-2.98m-2 0h-3m-2 0h-2.98m-2 0h-3m-2 0h-2.98m-2 0h-3m-2 0h-2.98m-2 0h-3m-2 0h-2.98m-2 0h-3m-2 0h-2.98m-2 0h-3m-2 0h-2.98m-2 0h-3m-2 0h-2.98m-2 0h-3m-2 0h-2.98m-2 0h-3m-2 0H858m-2 0h-3m-2 0H848m-2 0h-3m-2 0h-2.98m-2 0h-3m-2 0h-2.98m-2 0h-3m-2 0h-2.98m-2 0h-3m-2 0h-2.98m-2 0h-3m-2 0h-2.98m-2 0h-3m-2 0h-2.98m-2 0h-3m-2 0h-2.98m-2 0h-3m-2 0h-2.98m-2 0h-3m-2 0h-2.98m-2 0h-3m-2 0h-2.98m-2 0h-3m-2 0h-2.98m-2 0h-3m-2 0h-2.98m-2 0h-3m-2 0h-2.98m-2 0h-3m-2 0h-2.98m-2 0h-3m-2 0h-2.98m-2 0h-3m-1.98 0h-3m-2 0h-3m-2 0h-2.98m-2 0h-3m-1.98 0h-3m-2 0h-3m-1.98 0h-3m-2 0h-3m-1.98 0h-3m-2 0h-3m-1.98 0h-3m-2 0h-3m-1.98 0h-3m-2 0h-3m-1.98 0h-3m-2 0h-3m-1.98 0h-3m-2 0h-3m-1.98 0h-3m-2 0h-3m-1.98 0h-3m-2 0h-3m-1.98 0h-3m-2 0h-3m-1.98 0h-3m-2 0h-3m-1.98 0h-3m-2 0h-3m-1.98 0h-3m-2 0h-3m-1.98 0h-3m-2 0h-3m-1.98 0h-3m-2 0h-3m-1.98 0h-3m-2 0h-3m-1.98 0h-3m-2 0h-3m-1.98 0h-3m-2 0h-3m-1.98 0h-3m-2 0h-3m-1.98 0h-3m-2 0h-2.98m-2 0h-3m-2 0h-2.98m-2 0h-3m-2 0h-2.98m-2 0h-3m-2 0h-2.98m-2 0h-3m-2 0h-2.98m-2 0h-3m-2 0h-2.98m-2 0h-3m-2 0h-2.98m-2 0h-3m-2 0h-2.98m-2 0h-3m-2 0h-2.98m-2 0h-3m-2 0h-2.98m-2 0h-3m-2 0h-2.98m-2 0h-3m-2 0H364m-2 0h-3m-2 0H354m-2 0h-3m-2 0h-2.98m-2 0h-3m-2 0h-2.98m-2 0h-3m-2 0h-2.98m-2 0h-3m-2 0h-2.98m-2 0h-3m-2 0h-2.98m-2 0h-3m-2 0h-2.98m-2 0h-3m-2 0h-2.98m-2 0h-3m-2 0h-2.98m-2 0h-3m-2 0h-2.98m-2 0h-3m-2 0h-2.98m-2 0h-3m-2 0h-2.98m-2 0h-3m-2 0h-2.98m-2 0h-3m-2 0h-2.98m-2 0h-3m-1.98 0h-3m-2 0h-3m-2 0h-2.98m-2 0h-3m-2 0h-2.98m-2 0h-3m-1.98 0h-3m-2 0h-3m-1.98 0h-3m-2 0h-3m-1.98 0h-3m-2 0h-3m-1.98 0h-3m-2 0h-3m-1.98 0h-3m-2 0h-3m-1.98 0h-3m-2 0h-3m-1.98 0h-3m-2 0h-3m-1.98 0h-3m-2 0h-3m-1.98 0H106l-.94-.07-.46-.1m-1.72-.73l-.4-.25-.72-.6-.6-.72-.26-.4m-.72-1.73l-.1-.46-.08-.94v-1.5m0-2v-2.97m0-2v-2.98m0-2v-2.98m0-2v-2.98m0-2v-3m0-1.98v-3m0-1.98v-3m0-1.98v-3m0-1.98v-3m0-1.98v-3m0-1.98v-3m0-1.98v-3m0-1.98v-3m0-1.98v-3m0-1.98v-3m0-1.98v-3m0-1.98v-3m0-1.98v-3m0-1.98v-3m0-1.98v-3m0-1.98v-3m0-1.98v-3m0-1.98v-2.98m0-2V473m0-2v-2.98m0-2v-2.98m0-2v-2.98m0-2v-2.98m0-2v-2.98m0-2v-2.98m0-2v-2.98m0-2v-2.98m0-2v-2.98m0-2v-2.98m0-2v-2.98m0-2v-2.98m0-2v-2.98m0-2v-2.98m0-2v-2.98m0-2v-2.98m0-2v-2.98m0-2v-2.98m0-2v-2.98m0-2v-2.98m0-2v-2.98m0-2v-2.98m0-2v-2.98m0-2v-2.97m0-2v-3m0-2v-2.97m0-2v-2.98m0-2v-2.98m0-2v-2.98m0-2v-3m0-1.98v-3m0-1.98v-3m0-1.98v-3m0-1.98v-3m0-1.98v-3m0-1.98v-3m0-1.98v-3m0-1.98v-3m0-1.98v-3m0-1.98v-3m0-1.98v-3m0-1.98v-3m0-1.98v-3m0-1.98v-3m0-1.98v-3m0-1.98v-2.98m0-2v-2.98m0-2v-2.98m0-2V229m0-2v-2.98m0-2v-2.98m0-2v-2.98m0-2v-2.98m0-2v-2.98m0-2v-2.98m0-2v-2.98m0-2v-2.98m0-2v-2.98m0-2v-2.98m0-2v-2.98m0-2v-2.98m0-2v-2.98m0-2v-2.98m0-2v-2.98m0-2v-2.98m0-2v-2.98m0-2v-2.98m0-2v-2.98m0-2v-2.98m0-2v-2.98m0-2v-2.98m0-2v-2.97m0-2v-2.98m0-2V106l.07-.94.1-.46" stroke="#3a414a" fill="none"/><use xlink:href="#a" transform="matrix(1,0,0,1,105,105) translate(0 17.77777777777778)"/><use xlink:href="#b" transform="matrix(1,0,0,1,105,105) translate(65.37037037037035 17.77777777777778)"/><use xlink:href="#c" transform="matrix(1,0,0,1,105,105) translate(146.66666666666663 17.77777777777778)"/><use xlink:href="#d" transform="matrix(1,0,0,1,105,105) translate(219.38271604938268 17.77777777777778)"/><use xlink:href="#e" transform="matrix(1,0,0,1,105,105) translate(294.56790123456784 17.77777777777778)"/><path d="M280 366a6 6 0 0 1 6-6h228a6 6 0 0 1 6 6v148a6 6 0 0 1-6 6H286a6 6 0 0 1-6-6z" stroke="#3a414a" fill="#cfe4ff"/><use xlink:href="#f" transform="matrix(1,0,0,1,285,365) translate(11.111111111111114 68.20833333333333)"/><use xlink:href="#g" transform="matrix(1,0,0,1,285,365) translate(74.14814814814815 68.20833333333333)"/><use xlink:href="#h" transform="matrix(1,0,0,1,285,365) translate(73.47222222222223 94.875)"/><path d="M760 366a6 6 0 0 1 6-6h228a6 6 0 0 1 6 6v148a6 6 0 0 1-6 6H766a6 6 0 0 1-6-6z" stroke="#3a414a" fill="#cfe4ff"/><use xlink:href="#i" transform="matrix(1,0,0,1,765,365) translate(55.88888888888889 68.20833333333333)"/><use xlink:href="#j" transform="matrix(1,0,0,1,765,365) translate(129.74074074074073 68.20833333333333)"/><use xlink:href="#k" transform="matrix(1,0,0,1,765,365) translate(31.361111111111143 94.875)"/><path d="M527.37 440h215.75" stroke="#3a414a" fill="none"/><path d="M521.48 440l12.9-7.64v15.28zM757.88 440l-14.26 4.63v-9.26z" stroke="#3a414a" fill="#3a414a"/><path d="M-50 180c27.6 0 50 22.4 50 50s-22.4 50-50 50h-100c-27.6 0-50-22.4-50-50s22.4-50 50-50z" stroke="#3a414a" fill="#ffd9d9"/><use xlink:href="#l" transform="matrix(1,0,0,1,-195,185) translate(28.672839506172835 48.71527777777778)"/><use xlink:href="#m" transform="matrix(1,0,0,1,-195,185) translate(80.03086419753086 48.71527777777778)"/><path d="M7.37 230H134a6 6 0 0 1 6 6v198a6 6 0 0 0 6 6h117.12" stroke="#3a414a" fill="none"/><path d="M1.48 230l12.9-7.64v15.28zM277.88 440l-14.26 4.63v-9.26z" stroke="#3a414a" fill="#3a414a"/><path d="M920 166a6 6 0 0 1 6-6h128a6 6 0 0 1 6 6v94c-23.38-16.7-37.94-16.7-46.76-16.7-14 0-32.62 16.7-46.62 16.7-8.68 0-23.38 0-46.62-16.7z" stroke="#3a414a" fill="#fcfcca"/><use xlink:href="#n" transform="matrix(1,0,0,1,925,165) translate(2.1296296296296333 40.90277777777778)"/><use xlink:href="#o" transform="matrix(1,0,0,1,925,165) translate(77.31481481481481 40.90277777777778)"/><use xlink:href="#p" transform="matrix(1,0,0,1,925,165) translate(90.83333333333333 40.90277777777778)"/><path d="M692.14-36c-13.26 0-24-10.74-24-24 0-10.6 6.5-19.55 16.58-22.83C684.14-114 724.14-120 740.14-108c8-18 48-12 48 6 24-6 48 18 32 48 16 24 0 54-32 42-8 15.6-40 15.6-48 0-16 12-48 6-48-24z" stroke="#3a414a" fill="#fff7a1"/><use xlink:href="#q" transform="matrix(1,0,0,1,673.1358024691358,-115) translate(36.90623456790124 31.52777777777778)"/><use xlink:href="#r" transform="matrix(1,0,0,1,673.1358024691358,-115) translate(24.148148148148145 58.19444444444445)"/><use xlink:href="#s" transform="matrix(1,0,0,1,673.1358024691358,-115) translate(49.02969135802469 84.86111111111111)"/><path d="M747.63-3.36v75.18a6 6 0 0 0 6 6H984a6 6 0 0 1 6 6v59.3" stroke="#3a414a" fill="none"/><path d="M748.13-3.57v.23h-1v-.8z" stroke="#3a414a" stroke-width=".05" fill="#3a414a"/><path d="M990 157.88l-4.63-14.26h9.26z" stroke="#3a414a" fill="#3a414a"/><path d="M990 252.46v47.27a6 6 0 0 1-6 6h-98a6 6 0 0 0-6 6v31.4" stroke="#3a414a" fill="none"/><path d="M990.5 252.47h-1v-.28l1-.48z" stroke="#3a414a" stroke-width=".05" fill="#3a414a"/><path d="M880 357.88l-4.63-14.26h9.26z" stroke="#3a414a" fill="#3a414a"/><path d="M800 40h160v20H800z" fill="#fff" fill-opacity="0"/><use xlink:href="#t" transform="matrix(1,0,0,1,805,45) translate(0 12.444444444444446)"/><use xlink:href="#u" transform="matrix(1,0,0,1,805,45) translate(57.77160493827161 12.444444444444446)"/><path d="M140 280h56.27v31.33H140z" fill="#fff" fill-opacity="0"/><use xlink:href="#v" transform="matrix(1,0,0,1,145,285) translate(0 14.222222222222223)"/><path d="M611.86 400h56.28v31.33h-56.28z" fill="#fff" fill-opacity="0"/><g><use xlink:href="#v" transform="matrix(1,0,0,1,616.8641975308642,405) translate(0 14.222222222222223)"/></g><path d="M-200 372a12 12 0 0 1 12-12H48a12 12 0 0 1 12 12v216.88a12 12 0 0 1-12 12h-236a12 12 0 0 1-12-12z" stroke="#dfe3e8" stroke-width="2" fill="#fff"/><path d="M-141.25 431.34c0 6.95-5.63 12.6-12.6 12.6-6.94 0-12.58-5.65-12.58-12.6 0-6.95 5.64-12.6 12.6-12.6 6.95 0 12.58 5.65 12.58 12.6z" stroke="#000" stroke-opacity=".25" fill="#cfe4ff"/><path d="M-141.25 464.9c0 6.97-5.63 12.6-12.6 12.6-6.94 0-12.58-5.63-12.58-12.6 0-6.94 5.64-12.58 12.6-12.58 6.95 0 12.58 5.64 12.58 12.6z" stroke="#000" stroke-opacity=".25" fill="#edf5ff"/><path d="M-141.25 498.5c0 6.94-5.63 12.57-12.6 12.57-6.94 0-12.58-5.63-12.58-12.58 0-6.97 5.64-12.6 12.6-12.6 6.95 0 12.58 5.63 12.58 12.6z" stroke="#000" stroke-opacity=".25" fill="#ffd9d9"/><path d="M-141.25 532.06c0 6.95-5.63 12.6-12.6 12.6-6.94 0-12.58-5.65-12.58-12.6 0-6.96 5.64-12.6 12.6-12.6 6.95 0 12.58 5.64 12.58 12.6z" stroke="#000" stroke-opacity=".25" fill="#fcfcca"/><path d="M-141.25 565.63c0 6.95-5.63 12.6-12.6 12.6-6.94 0-12.58-5.65-12.58-12.6 0-6.95 5.64-12.6 12.6-12.6 6.95 0 12.58 5.65 12.58 12.6z" stroke="#000" stroke-opacity=".25" fill="#fff7a1"/><g><use xlink:href="#w" transform="matrix(1,0,0,1,-166.42787456445993,385.1790940766551) translate(0 15.1809864448073)"/><use xlink:href="#x" transform="matrix(1,0,0,1,-166.42787456445993,385.1790940766551) translate(45.60226006272193 15.1809864448073)"/></g><g><use xlink:href="#y" transform="matrix(1,0,0,1,-128.65923344947734,418.7512195121951) translate(0 15.477490086307444)"/><use xlink:href="#z" transform="matrix(1,0,0,1,-128.65923344947734,418.7512195121951) translate(28.434699219863678 15.477490086307444)"/><use xlink:href="#A" transform="matrix(1,0,0,1,-128.65923344947734,418.7512195121951) translate(52.71834745872536 15.477490086307444)"/></g><g><use xlink:href="#y" transform="matrix(1,0,0,1,-128.65923344947734,452.3233449477352) translate(0 15.477490086307444)"/><use xlink:href="#B" transform="matrix(1,0,0,1,-128.65923344947734,452.3233449477352) translate(28.434699219863678 15.477490086307444)"/></g><g><use xlink:href="#C" transform="matrix(1,0,0,1,-128.65923344947734,485.89547038327527) translate(0 15.477490086307444)"/><use xlink:href="#D" transform="matrix(1,0,0,1,-128.65923344947734,485.89547038327527) translate(21.941269471010557 15.477490086307444)"/></g><g><use xlink:href="#E" transform="matrix(1,0,0,1,-128.65923344947734,519.4675958188153) translate(0 15.477490086307444)"/><use xlink:href="#F" transform="matrix(1,0,0,1,-128.65923344947734,519.4675958188153) translate(25.469662804862253 15.477490086307444)"/><use xlink:href="#G" transform="matrix(1,0,0,1,-128.65923344947734,519.4675958188153) translate(63.98548583573078 15.477490086307444)"/></g><g><use xlink:href="#H" transform="matrix(1,0,0,1,-128.65923344947734,553.0397212543554) translate(0 15.477490086307444)"/><use xlink:href="#I" transform="matrix(1,0,0,1,-128.65923344947734,553.0397212543554) translate(48.53764611357335 15.477490086307444)"/><use xlink:href="#J" transform="matrix(1,0,0,1,-128.65923344947734,553.0397212543554) translate(72.25793743358476 15.477490086307444)"/></g><defs><path fill="#3a414a" d="M190 0L58-211 59 0H30v-248h39L202-35l-2-213h31V0h-41" id="K"/><path fill="#3a414a" d="M205 0l-28-72H64L36 0H1l101-248h38L239 0h-34zm-38-99l-47-123c-12 45-31 82-46 123h93" id="L"/><path fill="#3a414a" d="M185-189c-5-48-123-54-124 2 14 75 158 14 163 119 3 78-121 87-175 55-17-10-28-26-33-46l33-7c5 56 141 63 141-1 0-78-155-14-162-118-5-82 145-84 179-34 5 7 8 16 11 25" id="M"/><g id="a"><use transform="matrix(0.06172839506172839,0,0,0.06172839506172839,0,0)" xlink:href="#K"/><use transform="matrix(0.06172839506172839,0,0,0.06172839506172839,15.987654320987653,0)" xlink:href="#L"/><use transform="matrix(0.06172839506172839,0,0,0.06172839506172839,30.80246913580247,0)" xlink:href="#M"/><use transform="matrix(0.06172839506172839,0,0,0.06172839506172839,45.61728395061728,0)" xlink:href="#L"/></g><path fill="#3a414a" d="M240 0l2-218c-23 76-54 145-80 218h-23L58-218 59 0H30v-248h44l77 211c21-75 51-140 76-211h43V0h-30" id="N"/><path fill="#3a414a" d="M24-231v-30h32v30H24zM24 0v-190h32V0H24" id="O"/><path fill="#3a414a" d="M135-143c-3-34-86-38-87 0 15 53 115 12 119 90S17 21 10-45l28-5c4 36 97 45 98 0-10-56-113-15-118-90-4-57 82-63 122-42 12 7 21 19 24 35" id="P"/><path fill="#3a414a" d="M100-194c62-1 85 37 85 99 1 63-27 99-86 99S16-35 15-95c0-66 28-99 85-99zM99-20c44 1 53-31 53-75 0-43-8-75-51-75s-53 32-53 75 10 74 51 75" id="Q"/><path fill="#3a414a" d="M117-194c89-4 53 116 60 194h-32v-121c0-31-8-49-39-48C34-167 62-67 57 0H25l-1-190h30c1 10-1 24 2 32 11-22 29-35 61-36" id="R"/><g id="b"><use transform="matrix(0.06172839506172839,0,0,0.06172839506172839,0,0)" xlink:href="#N"/><use transform="matrix(0.06172839506172839,0,0,0.06172839506172839,18.456790123456788,0)" xlink:href="#O"/><use transform="matrix(0.06172839506172839,0,0,0.06172839506172839,23.33333333333333,0)" xlink:href="#P"/><use transform="matrix(0.06172839506172839,0,0,0.06172839506172839,34.44444444444444,0)" xlink:href="#P"/><use transform="matrix(0.06172839506172839,0,0,0.06172839506172839,45.55555555555556,0)" xlink:href="#O"/><use transform="matrix(0.06172839506172839,0,0,0.06172839506172839,50.4320987654321,0)" xlink:href="#Q"/><use transform="matrix(0.06172839506172839,0,0,0.06172839506172839,62.77777777777778,0)" xlink:href="#R"/></g><path fill="#3a414a" d="M96-169c-40 0-48 33-48 73s9 75 48 75c24 0 41-14 43-38l32 2c-6 37-31 61-74 61-59 0-76-41-82-99-10-93 101-131 147-64 4 7 5 14 7 22l-32 3c-4-21-16-35-41-35" id="S"/><path fill="#3a414a" d="M59-47c-2 24 18 29 38 22v24C64 9 27 4 27-40v-127H5v-23h24l9-43h21v43h35v23H59v120" id="T"/><path fill="#3a414a" d="M114-163C36-179 61-72 57 0H25l-1-190h30c1 12-1 29 2 39 6-27 23-49 58-41v29" id="U"/><path fill="#3a414a" d="M24 0v-261h32V0H24" id="V"/><g id="c"><use transform="matrix(0.06172839506172839,0,0,0.06172839506172839,0,0)" xlink:href="#S"/><use transform="matrix(0.06172839506172839,0,0,0.06172839506172839,11.11111111111111,0)" xlink:href="#Q"/><use transform="matrix(0.06172839506172839,0,0,0.06172839506172839,23.45679012345679,0)" xlink:href="#R"/><use transform="matrix(0.06172839506172839,0,0,0.06172839506172839,35.80246913580247,0)" xlink:href="#T"/><use transform="matrix(0.06172839506172839,0,0,0.06172839506172839,41.97530864197531,0)" xlink:href="#U"/><use transform="matrix(0.06172839506172839,0,0,0.06172839506172839,49.32098765432099,0)" xlink:href="#Q"/><use transform="matrix(0.06172839506172839,0,0,0.06172839506172839,61.666666666666664,0)" xlink:href="#V"/></g><path fill="#3a414a" d="M30-248c87 1 191-15 191 75 0 78-77 80-158 76V0H30v-248zm33 125c57 0 124 11 124-50 0-59-68-47-124-48v98" id="W"/><path fill="#3a414a" d="M24-231v-30h32v30H24zM-9 49c24 4 33-6 33-30v-209h32V24c2 40-23 58-65 49V49" id="X"/><path fill="#3a414a" d="M100-194c63 0 86 42 84 106H49c0 40 14 67 53 68 26 1 43-12 49-29l28 8c-11 28-37 45-77 45C44 4 14-33 15-96c1-61 26-98 85-98zm52 81c6-60-76-77-97-28-3 7-6 17-6 28h103" id="Y"/><g id="d"><use transform="matrix(0.06172839506172839,0,0,0.06172839506172839,0,0)" xlink:href="#W"/><use transform="matrix(0.06172839506172839,0,0,0.06172839506172839,14.814814814814813,0)" xlink:href="#U"/><use transform="matrix(0.06172839506172839,0,0,0.06172839506172839,22.160493827160494,0)" xlink:href="#Q"/><use transform="matrix(0.06172839506172839,0,0,0.06172839506172839,34.50617283950617,0)" xlink:href="#X"/><use transform="matrix(0.06172839506172839,0,0,0.06172839506172839,39.382716049382715,0)" xlink:href="#Y"/><use transform="matrix(0.06172839506172839,0,0,0.06172839506172839,51.72839506172839,0)" xlink:href="#S"/><use transform="matrix(0.06172839506172839,0,0,0.06172839506172839,62.839506172839506,0)" xlink:href="#T"/></g><path fill="#3a414a" d="M87 75C49 33 22-17 22-94c0-76 28-126 65-167h31c-38 41-64 92-64 168S80 34 118 75H87" id="Z"/><path fill="#3a414a" d="M141-36C126-15 110 5 73 4 37 3 15-17 15-53c-1-64 63-63 125-63 3-35-9-54-41-54-24 1-41 7-42 31l-33-3c5-37 33-52 76-52 45 0 72 20 72 64v82c-1 20 7 32 28 27v20c-31 9-61-2-59-35zM48-53c0 20 12 33 32 33 41-3 63-29 60-74-43 2-92-5-92 41" id="aa"/><path fill="#3a414a" d="M16-82v-28h88v28H16" id="ab"/><path fill="#3a414a" d="M115-194c55 1 70 41 70 98S169 2 115 4C84 4 66-9 55-30l1 105H24l-1-265h31l2 30c10-21 28-34 59-34zm-8 174c40 0 45-34 45-75s-6-73-45-74c-42 0-51 32-51 76 0 43 10 73 51 73" id="ac"/><path fill="#3a414a" d="M33-261c38 41 65 92 65 168S71 34 33 75H2C39 34 66-17 66-93S39-220 2-261h31" id="ad"/><g id="e"><use transform="matrix(0.06172839506172839,0,0,0.06172839506172839,0,0)" xlink:href="#Z"/><use transform="matrix(0.06172839506172839,0,0,0.06172839506172839,7.345679012345679,0)" xlink:href="#R"/><use transform="matrix(0.06172839506172839,0,0,0.06172839506172839,19.691358024691358,0)" xlink:href="#aa"/><use transform="matrix(0.06172839506172839,0,0,0.06172839506172839,32.03703703703704,0)" xlink:href="#P"/><use transform="matrix(0.06172839506172839,0,0,0.06172839506172839,43.14814814814815,0)" xlink:href="#aa"/><use transform="matrix(0.06172839506172839,0,0,0.06172839506172839,55.49382716049383,0)" xlink:href="#ab"/><use transform="matrix(0.06172839506172839,0,0,0.06172839506172839,62.839506172839506,0)" xlink:href="#ac"/><use transform="matrix(0.06172839506172839,0,0,0.06172839506172839,75.18518518518519,0)" xlink:href="#U"/><use transform="matrix(0.06172839506172839,0,0,0.06172839506172839,82.53086419753087,0)" xlink:href="#Q"/><use transform="matrix(0.06172839506172839,0,0,0.06172839506172839,94.87654320987656,0)" xlink:href="#X"/><use transform="matrix(0.06172839506172839,0,0,0.06172839506172839,99.7530864197531,0)" xlink:href="#Y"/><use transform="matrix(0.06172839506172839,0,0,0.06172839506172839,112.09876543209879,0)" xlink:href="#S"/><use transform="matrix(0.06172839506172839,0,0,0.06172839506172839,123.2098765432099,0)" xlink:href="#T"/><use transform="matrix(0.06172839506172839,0,0,0.06172839506172839,129.38271604938274,0)" xlink:href="#ad"/></g><path fill="#3a414a" d="M275 0h-61l-44-196L126 0H64L0-248h53L97-49l45-199h58l43 199 44-199h52" id="ae"/><path fill="#3a414a" d="M185-48c-13 30-37 53-82 52C43 2 14-33 14-96s30-98 90-98c62 0 83 45 84 108H66c0 31 8 55 39 56 18 0 30-7 34-22zm-45-69c5-46-57-63-70-21-2 6-4 13-4 21h74" id="af"/><path fill="#3a414a" d="M135-194c52 0 70 43 70 98 0 56-19 99-73 100-30 1-46-15-58-35L72 0H24l1-261h50v104c11-23 29-37 60-37zM114-30c31 0 40-27 40-66 0-37-7-63-39-63s-41 28-41 65c0 36 8 64 40 64" id="ag"/><g id="f"><use transform="matrix(0.07407407407407407,0,0,0.07407407407407407,0,0)" xlink:href="#ae"/><use transform="matrix(0.07407407407407407,0,0,0.07407407407407407,24.59259259259259,0)" xlink:href="#af"/><use transform="matrix(0.07407407407407407,0,0,0.07407407407407407,39.407407407407405,0)" xlink:href="#ag"/></g><path fill="#3a414a" d="M199 0l-22-63H83L61 0H9l90-248h61L250 0h-51zm-33-102l-36-108c-10 38-24 72-36 108h72" id="ah"/><path fill="#3a414a" d="M135-194c53 0 70 44 70 98 0 56-19 98-73 100-31 1-45-17-59-34 3 33 2 69 2 105H25l-1-265h48c2 10 0 23 3 31 11-24 29-35 60-35zM114-30c33 0 39-31 40-66 0-38-9-64-40-64-56 0-55 130 0 130" id="ai"/><path fill="#3a414a" d="M25 0v-261h50V0H25" id="aj"/><path fill="#3a414a" d="M25-224v-37h50v37H25zM25 0v-190h50V0H25" id="ak"/><path fill="#3a414a" d="M190-63c-7 42-38 67-86 67-59 0-84-38-90-98-12-110 154-137 174-36l-49 2c-2-19-15-32-35-32-30 0-35 28-38 64-6 74 65 87 74 30" id="al"/><path fill="#3a414a" d="M133-34C117-15 103 5 69 4 32 3 11-16 11-54c-1-60 55-63 116-61 1-26-3-47-28-47-18 1-26 9-28 27l-52-2c7-38 36-58 82-57s74 22 75 68l1 82c-1 14 12 18 25 15v27c-30 8-71 5-69-32zm-48 3c29 0 43-24 42-57-32 0-66-3-65 30 0 17 8 27 23 27" id="am"/><path fill="#3a414a" d="M115-3C79 11 28 4 28-45v-112H4v-33h27l15-45h31v45h36v33H77v99c-1 23 16 31 38 25v30" id="an"/><path fill="#3a414a" d="M110-194c64 0 96 36 96 99 0 64-35 99-97 99-61 0-95-36-95-99 0-62 34-99 96-99zm-1 164c35 0 45-28 45-65 0-40-10-65-43-65-34 0-45 26-45 65 0 36 10 65 43 65" id="ao"/><path fill="#3a414a" d="M135-194c87-1 58 113 63 194h-50c-7-57 23-157-34-157-59 0-34 97-39 157H25l-1-190h47c2 12-1 28 3 38 12-26 28-41 61-42" id="ap"/><g id="g"><use transform="matrix(0.07407407407407407,0,0,0.07407407407407407,0,0)" xlink:href="#ah"/><use transform="matrix(0.07407407407407407,0,0,0.07407407407407407,19.185185185185183,0)" xlink:href="#ai"/><use transform="matrix(0.07407407407407407,0,0,0.07407407407407407,35.407407407407405,0)" xlink:href="#ai"/><use transform="matrix(0.07407407407407407,0,0,0.07407407407407407,51.629629629629626,0)" xlink:href="#aj"/><use transform="matrix(0.07407407407407407,0,0,0.07407407407407407,59.03703703703703,0)" xlink:href="#ak"/><use transform="matrix(0.07407407407407407,0,0,0.07407407407407407,66.44444444444444,0)" xlink:href="#al"/><use transform="matrix(0.07407407407407407,0,0,0.07407407407407407,81.25925925925925,0)" xlink:href="#am"/><use transform="matrix(0.07407407407407407,0,0,0.07407407407407407,96.07407407407406,0)" xlink:href="#ak"/><use transform="matrix(0.07407407407407407,0,0,0.07407407407407407,103.48148148148145,0)" xlink:href="#an"/><use transform="matrix(0.07407407407407407,0,0,0.07407407407407407,112.29629629629628,0)" xlink:href="#ao"/><use transform="matrix(0.07407407407407407,0,0,0.07407407407407407,128.5185185185185,0)" xlink:href="#ap"/></g><path fill="#3a414a" d="M67-93c0 74 22 123 53 168H70C40 30 18-18 18-93s22-123 52-168h50c-32 44-53 94-53 168" id="aq"/><path fill="#3a414a" d="M137-138c1-29-70-34-71-4 15 46 118 7 119 86 1 83-164 76-172 9l43-7c4 19 20 25 44 25 33 8 57-30 24-41C81-84 22-81 20-136c-2-80 154-74 161-7" id="ar"/><path fill="#3a414a" d="M14-72v-43h91v43H14" id="as"/><path fill="#3a414a" d="M121-226c-27-7-43 5-38 36h38v33H83V0H34v-157H6v-33h28c-9-59 32-81 87-68v32" id="at"/><path fill="#3a414a" d="M102-93c0 74-22 123-52 168H0C30 29 54-18 53-93c0-74-22-123-53-168h50c30 45 52 94 52 168" id="au"/><g id="h"><use transform="matrix(0.05555555555555554,0,0,0.05555555555555554,0,0)" xlink:href="#aq"/><use transform="matrix(0.05555555555555554,0,0,0.05555555555555554,6.611111111111109,0)" xlink:href="#ap"/><use transform="matrix(0.05555555555555554,0,0,0.05555555555555554,18.77777777777777,0)" xlink:href="#am"/><use transform="matrix(0.05555555555555554,0,0,0.05555555555555554,29.88888888888888,0)" xlink:href="#ar"/><use transform="matrix(0.05555555555555554,0,0,0.05555555555555554,40.999999999999986,0)" xlink:href="#am"/><use transform="matrix(0.05555555555555554,0,0,0.05555555555555554,52.11111111111109,0)" xlink:href="#as"/><use transform="matrix(0.05555555555555554,0,0,0.05555555555555554,58.72222222222221,0)" xlink:href="#at"/><use transform="matrix(0.05555555555555554,0,0,0.05555555555555554,65.33333333333331,0)" xlink:href="#af"/><use transform="matrix(0.05555555555555554,0,0,0.05555555555555554,76.44444444444443,0)" xlink:href="#au"/></g><path fill="#3a414a" d="M175 0L67-191c6 58 2 128 3 191H24v-248h59L193-55c-6-58-2-129-3-193h46V0h-61" id="av"/><path fill="#3a414a" d="M88-194c31-1 46 15 58 34l-1-101h50l1 261h-48c-2-10 0-23-3-31C134-8 116 4 84 4 32 4 16-41 15-95c0-56 19-97 73-99zm17 164c33 0 40-30 41-66 1-37-9-64-41-64s-38 30-39 65c0 43 13 65 39 65" id="aw"/><g id="i"><use transform="matrix(0.07407407407407407,0,0,0.07407407407407407,0,0)" xlink:href="#av"/><use transform="matrix(0.07407407407407407,0,0,0.07407407407407407,19.185185185185183,0)" xlink:href="#ao"/><use transform="matrix(0.07407407407407407,0,0,0.07407407407407407,35.407407407407405,0)" xlink:href="#aw"/><use transform="matrix(0.07407407407407407,0,0,0.07407407407407407,51.629629629629626,0)" xlink:href="#af"/></g><path fill="#3a414a" d="M24-248c93 1 206-16 204 79-1 75-69 88-152 82V0H24v-248zm52 121c47 0 100 7 100-41 0-47-54-39-100-39v80" id="ax"/><path fill="#3a414a" d="M24 0v-248h52V0H24" id="ay"/><g id="j"><use transform="matrix(0.07407407407407407,0,0,0.07407407407407407,0,0)" xlink:href="#ah"/><use transform="matrix(0.07407407407407407,0,0,0.07407407407407407,19.185185185185183,0)" xlink:href="#ax"/><use transform="matrix(0.07407407407407407,0,0,0.07407407407407407,36.96296296296296,0)" xlink:href="#ay"/></g><path fill="#3a414a" d="M135-150c-39-12-60 13-60 57V0H25l-1-190h47c2 13-1 29 3 40 6-28 27-53 61-41v41" id="az"/><path fill="#3a414a" d="M25-224v-37h50v37H25zM75 22c2 45-34 59-81 51V38c22 5 31-5 31-27v-201h50V22" id="aA"/><g id="k"><use transform="matrix(0.05555555555555554,0,0,0.05555555555555554,0,0)" xlink:href="#aq"/><use transform="matrix(0.05555555555555554,0,0,0.05555555555555554,6.611111111111109,0)" xlink:href="#ap"/><use transform="matrix(0.05555555555555554,0,0,0.05555555555555554,18.77777777777777,0)" xlink:href="#am"/><use transform="matrix(0.05555555555555554,0,0,0.05555555555555554,29.88888888888888,0)" xlink:href="#ar"/><use transform="matrix(0.05555555555555554,0,0,0.05555555555555554,40.999999999999986,0)" xlink:href="#am"/><use transform="matrix(0.05555555555555554,0,0,0.05555555555555554,52.11111111111109,0)" xlink:href="#as"/><use transform="matrix(0.05555555555555554,0,0,0.05555555555555554,58.72222222222221,0)" xlink:href="#ai"/><use transform="matrix(0.05555555555555554,0,0,0.05555555555555554,70.88888888888886,0)" xlink:href="#az"/><use transform="matrix(0.05555555555555554,0,0,0.05555555555555554,78.66666666666663,0)" xlink:href="#ao"/><use transform="matrix(0.05555555555555554,0,0,0.05555555555555554,90.83333333333329,0)" xlink:href="#aA"/><use transform="matrix(0.05555555555555554,0,0,0.05555555555555554,96.38888888888884,0)" xlink:href="#af"/><use transform="matrix(0.05555555555555554,0,0,0.05555555555555554,107.49999999999994,0)" xlink:href="#al"/><use transform="matrix(0.05555555555555554,0,0,0.05555555555555554,118.61111111111104,0)" xlink:href="#an"/><use transform="matrix(0.05555555555555554,0,0,0.05555555555555554,125.22222222222219,0)" xlink:href="#as"/><use transform="matrix(0.05555555555555554,0,0,0.05555555555555554,131.8333333333333,0)" xlink:href="#am"/><use transform="matrix(0.05555555555555554,0,0,0.05555555555555554,142.9444444444444,0)" xlink:href="#ai"/><use transform="matrix(0.05555555555555554,0,0,0.05555555555555554,155.11111111111106,0)" xlink:href="#ak"/><use transform="matrix(0.05555555555555554,0,0,0.05555555555555554,160.6666666666666,0)" xlink:href="#au"/></g><path fill="#3a414a" d="M266 0h-40l-56-210L115 0H75L2-248h35L96-30l15-64 43-154h32l59 218 59-218h35" id="aB"/><path fill="#3a414a" d="M115-194c53 0 69 39 70 98 0 66-23 100-70 100C84 3 66-7 56-30L54 0H23l1-261h32v101c10-23 28-34 59-34zm-8 174c40 0 45-34 45-75 0-40-5-75-45-74-42 0-51 32-51 76 0 43 10 73 51 73" id="aC"/><g id="l"><use transform="matrix(0.06172839506172839,0,0,0.06172839506172839,0,0)" xlink:href="#aB"/><use transform="matrix(0.06172839506172839,0,0,0.06172839506172839,20.493827160493826,0)" xlink:href="#Y"/><use transform="matrix(0.06172839506172839,0,0,0.06172839506172839,32.839506172839506,0)" xlink:href="#aC"/></g><path fill="#3a414a" d="M160-131c35 5 61 23 61 61C221 17 115-2 30 0v-248c76 3 177-17 177 60 0 33-19 50-47 57zm-97-11c50-1 110 9 110-42 0-47-63-36-110-37v79zm0 115c55-2 124 14 124-45 0-56-70-42-124-44v89" id="aD"/><path fill="#3a414a" d="M206 0h-36l-40-164L89 0H53L-1-190h32L70-26l43-164h34l41 164 42-164h31" id="aE"/><g id="m"><use transform="matrix(0.06172839506172839,0,0,0.06172839506172839,0,0)" xlink:href="#aD"/><use transform="matrix(0.06172839506172839,0,0,0.06172839506172839,14.814814814814813,0)" xlink:href="#U"/><use transform="matrix(0.06172839506172839,0,0,0.06172839506172839,22.160493827160494,0)" xlink:href="#Q"/><use transform="matrix(0.06172839506172839,0,0,0.06172839506172839,34.50617283950617,0)" xlink:href="#aE"/><use transform="matrix(0.06172839506172839,0,0,0.06172839506172839,50.49382716049382,0)" xlink:href="#P"/><use transform="matrix(0.06172839506172839,0,0,0.06172839506172839,61.60493827160494,0)" xlink:href="#Y"/><use transform="matrix(0.06172839506172839,0,0,0.06172839506172839,73.95061728395062,0)" xlink:href="#U"/></g><path fill="#3a414a" d="M195 0l-88-114-31 24V0H24v-248h52v113l112-113h60L142-143 257 0h-62" id="aF"/><g id="n"><use transform="matrix(0.06172839506172839,0,0,0.06172839506172839,0,0)" xlink:href="#aF"/><use transform="matrix(0.06172839506172839,0,0,0.06172839506172839,15.987654320987653,0)" xlink:href="#af"/><use transform="matrix(0.06172839506172839,0,0,0.06172839506172839,28.333333333333332,0)" xlink:href="#ai"/><use transform="matrix(0.06172839506172839,0,0,0.06172839506172839,41.85185185185185,0)" xlink:href="#aj"/><use transform="matrix(0.06172839506172839,0,0,0.06172839506172839,48.02469135802469,0)" xlink:href="#af"/><use transform="matrix(0.06172839506172839,0,0,0.06172839506172839,60.37037037037037,0)" xlink:href="#az"/></g><use transform="matrix(0.06172839506172839,0,0,0.06172839506172839,0,0)" xlink:href="#as" id="o"/><path fill="#3a414a" d="M128 0H69L1-190h53L99-40l48-150h52" id="aG"/><g id="p"><use transform="matrix(0.06172839506172839,0,0,0.06172839506172839,0,0)" xlink:href="#al"/><use transform="matrix(0.06172839506172839,0,0,0.06172839506172839,12.345679012345679,0)" xlink:href="#ar"/><use transform="matrix(0.06172839506172839,0,0,0.06172839506172839,24.691358024691358,0)" xlink:href="#aG"/></g><g id="q"><use transform="matrix(0.06172839506172839,0,0,0.06172839506172839,0,0)" xlink:href="#K"/><use transform="matrix(0.06172839506172839,0,0,0.06172839506172839,15.987654320987653,0)" xlink:href="#L"/><use transform="matrix(0.06172839506172839,0,0,0.06172839506172839,30.80246913580247,0)" xlink:href="#M"/><use transform="matrix(0.06172839506172839,0,0,0.06172839506172839,45.61728395061728,0)" xlink:href="#L"/></g><path fill="#3a414a" d="M30 0v-248h187v28H63v79h144v27H63v87h162V0H30" id="aH"/><path fill="#3a414a" d="M141 0L90-78 38 0H4l68-98-65-92h35l48 74 47-74h35l-64 92 68 98h-35" id="aI"/><g id="r"><use transform="matrix(0.06172839506172839,0,0,0.06172839506172839,0,0)" xlink:href="#aH"/><use transform="matrix(0.06172839506172839,0,0,0.06172839506172839,14.814814814814813,0)" xlink:href="#aI"/><use transform="matrix(0.06172839506172839,0,0,0.06172839506172839,25.925925925925924,0)" xlink:href="#Q"/><use transform="matrix(0.06172839506172839,0,0,0.06172839506172839,38.2716049382716,0)" xlink:href="#ac"/><use transform="matrix(0.06172839506172839,0,0,0.06172839506172839,50.61728395061728,0)" xlink:href="#V"/><use transform="matrix(0.06172839506172839,0,0,0.06172839506172839,55.49382716049382,0)" xlink:href="#aa"/><use transform="matrix(0.06172839506172839,0,0,0.06172839506172839,67.8395061728395,0)" xlink:href="#R"/><use transform="matrix(0.06172839506172839,0,0,0.06172839506172839,80.18518518518519,0)" xlink:href="#Y"/><use transform="matrix(0.06172839506172839,0,0,0.06172839506172839,92.53086419753087,0)" xlink:href="#T"/></g><path fill="#3a414a" d="M106-169C34-169 62-67 57 0H25v-261h32l-1 103c12-21 28-36 61-36 89 0 53 116 60 194h-32v-121c2-32-8-49-39-48" id="aJ"/><path fill="#3a414a" d="M108 0H70L1-190h34L89-25l56-165h34" id="aK"/><g id="s"><use transform="matrix(0.06172839506172839,0,0,0.06172839506172839,0,0)" xlink:href="#L"/><use transform="matrix(0.06172839506172839,0,0,0.06172839506172839,14.814814814814813,0)" xlink:href="#U"/><use transform="matrix(0.06172839506172839,0,0,0.06172839506172839,22.160493827160494,0)" xlink:href="#S"/><use transform="matrix(0.06172839506172839,0,0,0.06172839506172839,33.27160493827161,0)" xlink:href="#aJ"/><use transform="matrix(0.06172839506172839,0,0,0.06172839506172839,45.617283950617285,0)" xlink:href="#O"/><use transform="matrix(0.06172839506172839,0,0,0.06172839506172839,50.49382716049383,0)" xlink:href="#aK"/><use transform="matrix(0.06172839506172839,0,0,0.06172839506172839,61.60493827160494,0)" xlink:href="#Y"/></g><path fill="#333" d="M230 0l2-204L168 0h-37L68-204 70 0H24v-248h70l56 185 57-185h69V0h-46" id="aL"/><path fill="#333" d="M133-34C117-15 103 5 69 4 32 3 11-16 11-54c-1-60 55-63 116-61 1-26-3-47-28-47-18 1-26 9-28 27l-52-2c7-38 36-58 82-57s74 22 75 68l1 82c-1 14 12 18 25 15v27c-30 8-71 5-69-32zm-48 3c29 0 43-24 42-57-32 0-66-3-65 30 0 17 8 27 23 27" id="aM"/><path fill="#333" d="M135-194c87-1 58 113 63 194h-50c-7-57 23-157-34-157-59 0-34 97-39 157H25l-1-190h47c2 12-1 28 3 38 12-26 28-41 61-42" id="aN"/><path fill="#333" d="M85 4C-2 5 27-109 22-190h50c7 57-23 150 33 157 60-5 35-97 40-157h50l1 190h-47c-2-12 1-28-3-38-12 25-28 42-61 42" id="aO"/><path fill="#333" d="M25 0v-261h50V0H25" id="aP"/><g id="t"><use transform="matrix(0.04320987654320988,0,0,0.04320987654320988,0,0)" xlink:href="#aL"/><use transform="matrix(0.04320987654320988,0,0,0.04320987654320988,12.919753086419755,0)" xlink:href="#aM"/><use transform="matrix(0.04320987654320988,0,0,0.04320987654320988,21.56172839506173,0)" xlink:href="#aN"/><use transform="matrix(0.04320987654320988,0,0,0.04320987654320988,31.024691358024693,0)" xlink:href="#aO"/><use transform="matrix(0.04320987654320988,0,0,0.04320987654320988,40.48765432098766,0)" xlink:href="#aM"/><use transform="matrix(0.04320987654320988,0,0,0.04320987654320988,49.12962962962963,0)" xlink:href="#aP"/></g><path fill="#333" d="M88-194c31-1 46 15 58 34l-1-101h50l1 261h-48c-2-10 0-23-3-31C134-8 116 4 84 4 32 4 16-41 15-95c0-56 19-97 73-99zm17 164c33 0 40-30 41-66 1-37-9-64-41-64s-38 30-39 65c0 43 13 65 39 65" id="aQ"/><path fill="#333" d="M110-194c64 0 96 36 96 99 0 64-35 99-97 99-61 0-95-36-95-99 0-62 34-99 96-99zm-1 164c35 0 45-28 45-65 0-40-10-65-43-65-34 0-45 26-45 65 0 36 10 65 43 65" id="aR"/><path fill="#333" d="M231 0h-52l-39-155L100 0H48L-1-190h46L77-45c9-52 24-97 36-145h53l37 145 32-145h46" id="aS"/><g id="u"><use transform="matrix(0.04320987654320988,0,0,0.04320987654320988,0,0)" xlink:href="#aQ"/><use transform="matrix(0.04320987654320988,0,0,0.04320987654320988,9.462962962962964,0)" xlink:href="#aR"/><use transform="matrix(0.04320987654320988,0,0,0.04320987654320988,18.925925925925927,0)" xlink:href="#aS"/><use transform="matrix(0.04320987654320988,0,0,0.04320987654320988,31.024691358024693,0)" xlink:href="#aN"/><use transform="matrix(0.04320987654320988,0,0,0.04320987654320988,40.48765432098766,0)" xlink:href="#aP"/><use transform="matrix(0.04320987654320988,0,0,0.04320987654320988,44.808641975308646,0)" xlink:href="#aR"/><use transform="matrix(0.04320987654320988,0,0,0.04320987654320988,54.27160493827161,0)" xlink:href="#aM"/><use transform="matrix(0.04320987654320988,0,0,0.04320987654320988,62.91358024691359,0)" xlink:href="#aQ"/></g><path fill="#333" d="M186 0v-106H76V0H24v-248h52v99h110v-99h50V0h-50" id="aT"/><path fill="#333" d="M136-208V0H84v-208H4v-40h212v40h-80" id="aU"/><path fill="#333" d="M24-248c93 1 206-16 204 79-1 75-69 88-152 82V0H24v-248zm52 121c47 0 100 7 100-41 0-47-54-39-100-39v80" id="aV"/><g id="v"><use transform="matrix(0.04938271604938272,0,0,0.04938271604938272,0,0)" xlink:href="#aT"/><use transform="matrix(0.04938271604938272,0,0,0.04938271604938272,12.790123456790125,0)" xlink:href="#aU"/><use transform="matrix(0.04938271604938272,0,0,0.04938271604938272,23.60493827160494,0)" xlink:href="#aU"/><use transform="matrix(0.04938271604938272,0,0,0.04938271604938272,34.41975308641975,0)" xlink:href="#aV"/></g><path d="M24-248c120-7 223 5 221 122C244-46 201 0 124 0H24v-248zM76-40c74 7 117-18 117-86 0-67-45-88-117-82v168" id="aW"/><path d="M25-224v-37h50v37H25zM25 0v-190h50V0H25" id="aX"/><path d="M133-34C117-15 103 5 69 4 32 3 11-16 11-54c-1-60 55-63 116-61 1-26-3-47-28-47-18 1-26 9-28 27l-52-2c7-38 36-58 82-57s74 22 75 68l1 82c-1 14 12 18 25 15v27c-30 8-71 5-69-32zm-48 3c29 0 43-24 42-57-32 0-66-3-65 30 0 17 8 27 23 27" id="aY"/><path d="M195-6C206 82 75 100 31 46c-4-6-6-13-8-21l49-6c3 16 16 24 34 25 40 0 42-37 40-79-11 22-30 35-61 35-53 0-70-43-70-97 0-56 18-96 73-97 30 0 46 14 59 34l2-30h47zm-90-29c32 0 41-27 41-63 0-35-9-62-40-62-32 0-39 29-40 63 0 36 9 62 39 62" id="aZ"/><path d="M135-150c-39-12-60 13-60 57V0H25l-1-190h47c2 13-1 29 3 40 6-28 27-53 61-41v41" id="ba"/><path d="M220-157c-53 9-28 100-34 157h-49v-107c1-27-5-49-29-50C55-147 81-57 75 0H25l-1-190h47c2 12-1 28 3 38 10-53 101-56 108 0 13-22 24-43 59-42 82 1 51 116 57 194h-49v-107c-1-25-5-48-29-50" id="bb"/><g id="w"><use transform="matrix(0.02965036415001426,0,0,0.02965036415001426,0,0)" xlink:href="#aW"/><use transform="matrix(0.02965036415001426,0,0,0.02965036415001426,7.6794443148536935,0)" xlink:href="#aX"/><use transform="matrix(0.02965036415001426,0,0,0.02965036415001426,10.64448072985512,0)" xlink:href="#aY"/><use transform="matrix(0.02965036415001426,0,0,0.02965036415001426,16.57455355985797,0)" xlink:href="#aZ"/><use transform="matrix(0.02965036415001426,0,0,0.02965036415001426,23.067983308711096,0)" xlink:href="#ba"/><use transform="matrix(0.02965036415001426,0,0,0.02965036415001426,27.219034289713093,0)" xlink:href="#aY"/><use transform="matrix(0.02965036415001426,0,0,0.02965036415001426,33.14910711971594,0)" xlink:href="#bb"/></g><path d="M195 0l-88-114-31 24V0H24v-248h52v113l112-113h60L142-143 257 0h-62" id="bc"/><path d="M185-48c-13 30-37 53-82 52C43 2 14-33 14-96s30-98 90-98c62 0 83 45 84 108H66c0 31 8 55 39 56 18 0 30-7 34-22zm-45-69c5-46-57-63-70-21-2 6-4 13-4 21h74" id="bd"/><path d="M123 10C108 53 80 86 19 72V37c35 8 53-11 59-39L3-190h52l48 148c12-52 28-100 44-148h51" id="be"/><g id="x"><use transform="matrix(0.02965036415001426,0,0,0.02965036415001426,0,0)" xlink:href="#bc"/><use transform="matrix(0.02965036415001426,0,0,0.02965036415001426,7.6794443148536935,0)" xlink:href="#bd"/><use transform="matrix(0.02965036415001426,0,0,0.02965036415001426,13.609517144856547,0)" xlink:href="#be"/></g><path d="M190 0L58-211 59 0H30v-248h39L202-35l-2-213h31V0h-41" id="bf"/><path d="M100-194c62-1 85 37 85 99 1 63-27 99-86 99S16-35 15-95c0-66 28-99 85-99zM99-20c44 1 53-31 53-75 0-43-8-75-51-75s-53 32-53 75 10 74 51 75" id="bg"/><path d="M85-194c31 0 48 13 60 33l-1-100h32l1 261h-30c-2-10 0-23-3-31C134-8 116 4 85 4 32 4 16-35 15-94c0-66 23-100 70-100zm9 24c-40 0-46 34-46 75 0 40 6 74 45 74 42 0 51-32 51-76 0-42-9-74-50-73" id="bh"/><path d="M100-194c63 0 86 42 84 106H49c0 40 14 67 53 68 26 1 43-12 49-29l28 8c-11 28-37 45-77 45C44 4 14-33 15-96c1-61 26-98 85-98zm52 81c6-60-76-77-97-28-3 7-6 17-6 28h103" id="bi"/><g id="y"><use transform="matrix(0.029650364150014263,0,0,0.029650364150014263,0,0)" xlink:href="#bf"/><use transform="matrix(0.029650364150014263,0,0,0.029650364150014263,7.679444314853694,0)" xlink:href="#bg"/><use transform="matrix(0.029650364150014263,0,0,0.029650364150014263,13.609517144856548,0)" xlink:href="#bh"/><use transform="matrix(0.029650364150014263,0,0,0.029650364150014263,19.5395899748594,0)" xlink:href="#bi"/></g><path d="M114-163C36-179 61-72 57 0H25l-1-190h30c1 12-1 29 2 39 6-27 23-49 58-41v29" id="bj"/><path d="M115-194c55 1 70 41 70 98S169 2 115 4C84 4 66-9 55-30l1 105H24l-1-265h31l2 30c10-21 28-34 59-34zm-8 174c40 0 45-34 45-75s-6-73-45-74c-42 0-51 32-51 76 0 43 10 73 51 73" id="bk"/><g id="z"><use transform="matrix(0.029650364150014263,0,0,0.029650364150014263,0,0)" xlink:href="#bj"/><use transform="matrix(0.029650364150014263,0,0,0.029650364150014263,3.5283933338516977,0)" xlink:href="#bi"/><use transform="matrix(0.029650364150014263,0,0,0.029650364150014263,9.458466163854549,0)" xlink:href="#bk"/><use transform="matrix(0.029650364150014263,0,0,0.029650364150014263,15.388538993857402,0)" xlink:href="#bg"/></g><path d="M96-169c-40 0-48 33-48 73s9 75 48 75c24 0 41-14 43-38l32 2c-6 37-31 61-74 61-59 0-76-41-82-99-10-93 101-131 147-64 4 7 5 14 7 22l-32 3c-4-21-16-35-41-35" id="bl"/><path d="M210-169c-67 3-38 105-44 169h-31v-121c0-29-5-50-35-48C34-165 62-65 56 0H25l-1-190h30c1 10-1 24 2 32 10-44 99-50 107 0 11-21 27-35 58-36 85-2 47 119 55 194h-31v-121c0-29-5-49-35-48" id="bm"/><path d="M117-194c89-4 53 116 60 194h-32v-121c0-31-8-49-39-48C34-167 62-67 57 0H25l-1-190h30c1 10-1 24 2 32 11-22 29-35 61-36" id="bn"/><path d="M59-47c-2 24 18 29 38 22v24C64 9 27 4 27-40v-127H5v-23h24l9-43h21v43h35v23H59v120" id="bo"/><path d="M135-143c-3-34-86-38-87 0 15 53 115 12 119 90S17 21 10-45l28-5c4 36 97 45 98 0-10-56-113-15-118-90-4-57 82-63 122-42 12 7 21 19 24 35" id="bp"/><g id="A"><use transform="matrix(0.029650364150014263,0,0,0.029650364150014263,0,0)" xlink:href="#bl"/><use transform="matrix(0.029650364150014263,0,0,0.029650364150014263,5.337065547002568,0)" xlink:href="#bg"/><use transform="matrix(0.029650364150014263,0,0,0.029650364150014263,11.26713837700542,0)" xlink:href="#bm"/><use transform="matrix(0.029650364150014263,0,0,0.029650364150014263,20.132597257859686,0)" xlink:href="#bk"/><use transform="matrix(0.029650364150014263,0,0,0.029650364150014263,26.06267008786254,0)" xlink:href="#bg"/><use transform="matrix(0.029650364150014263,0,0,0.029650364150014263,31.99274291786539,0)" xlink:href="#bn"/><use transform="matrix(0.029650364150014263,0,0,0.029650364150014263,37.92281574786825,0)" xlink:href="#bi"/><use transform="matrix(0.029650364150014263,0,0,0.029650364150014263,43.8528885778711,0)" xlink:href="#bn"/><use transform="matrix(0.029650364150014263,0,0,0.029650364150014263,49.782961407873955,0)" xlink:href="#bo"/><use transform="matrix(0.029650364150014263,0,0,0.029650364150014263,52.74799782287538,0)" xlink:href="#bp"/></g><g id="B"><use transform="matrix(0.029650364150014263,0,0,0.029650364150014263,0,0)" xlink:href="#bj"/><use transform="matrix(0.029650364150014263,0,0,0.029650364150014263,3.5283933338516977,0)" xlink:href="#bi"/><use transform="matrix(0.029650364150014263,0,0,0.029650364150014263,9.458466163854549,0)" xlink:href="#bk"/><use transform="matrix(0.029650364150014263,0,0,0.029650364150014263,15.388538993857402,0)" xlink:href="#bg"/></g><path d="M30 0v-248h187v28H63v79h144v27H63v87h162V0H30" id="bq"/><g id="C"><use transform="matrix(0.029650364150014263,0,0,0.029650364150014263,0,0)" xlink:href="#bq"/><use transform="matrix(0.029650364150014263,0,0,0.029650364150014263,7.116087396003424,0)" xlink:href="#bn"/><use transform="matrix(0.029650364150014263,0,0,0.029650364150014263,13.046160226006275,0)" xlink:href="#bh"/></g><path d="M30-248c118-7 216 8 213 122C240-48 200 0 122 0H30v-248zM63-27c89 8 146-16 146-99s-60-101-146-95v194" id="br"/><path d="M108 0H70L1-190h34L89-25l56-165h34" id="bs"/><path d="M24-231v-30h32v30H24zM24 0v-190h32V0H24" id="bt"/><g id="D"><use transform="matrix(0.029650364150014263,0,0,0.029650364150014263,0,0)" xlink:href="#br"/><use transform="matrix(0.029650364150014263,0,0,0.029650364150014263,7.679444314853694,0)" xlink:href="#bi"/><use transform="matrix(0.029650364150014263,0,0,0.029650364150014263,13.609517144856548,0)" xlink:href="#bs"/><use transform="matrix(0.029650364150014263,0,0,0.029650364150014263,18.946582691859117,0)" xlink:href="#bt"/><use transform="matrix(0.029650364150014263,0,0,0.029650364150014263,21.288961459710244,0)" xlink:href="#bl"/><use transform="matrix(0.029650364150014263,0,0,0.029650364150014263,26.62602700671281,0)" xlink:href="#bi"/><use transform="matrix(0.029650364150014263,0,0,0.029650364150014263,32.55609983671566,0)" xlink:href="#bp"/></g><path d="M141-36C126-15 110 5 73 4 37 3 15-17 15-53c-1-64 63-63 125-63 3-35-9-54-41-54-24 1-41 7-42 31l-33-3c5-37 33-52 76-52 45 0 72 20 72 64v82c-1 20 7 32 28 27v20c-31 9-61-2-59-35zM48-53c0 20 12 33 32 33 41-3 63-29 60-74-43 2-92-5-92 41" id="bu"/><g id="E"><use transform="matrix(0.029650364150014263,0,0,0.029650364150014263,0,0)" xlink:href="#br"/><use transform="matrix(0.029650364150014263,0,0,0.029650364150014263,7.679444314853694,0)" xlink:href="#bu"/><use transform="matrix(0.029650364150014263,0,0,0.029650364150014263,13.609517144856548,0)" xlink:href="#bo"/><use transform="matrix(0.029650364150014263,0,0,0.029650364150014263,16.574553559857975,0)" xlink:href="#bu"/></g><path d="M177-190C167-65 218 103 67 71c-23-6-38-20-44-43l32-5c15 47 100 32 89-28v-30C133-14 115 1 83 1 29 1 15-40 15-95c0-56 16-97 71-98 29-1 48 16 59 35 1-10 0-23 2-32h30zM94-22c36 0 50-32 50-73 0-42-14-75-50-75-39 0-46 34-46 75s6 73 46 73" id="bv"/><g id="F"><use transform="matrix(0.029650364150014263,0,0,0.029650364150014263,0,0)" xlink:href="#bp"/><use transform="matrix(0.029650364150014263,0,0,0.029650364150014263,5.337065547002568,0)" xlink:href="#bo"/><use transform="matrix(0.029650364150014263,0,0,0.029650364150014263,8.302101962003993,0)" xlink:href="#bg"/><use transform="matrix(0.029650364150014263,0,0,0.029650364150014263,14.232174792006848,0)" xlink:href="#bj"/><use transform="matrix(0.029650364150014263,0,0,0.029650364150014263,17.760568125858544,0)" xlink:href="#bu"/><use transform="matrix(0.029650364150014263,0,0,0.029650364150014263,23.690640955861397,0)" xlink:href="#bv"/><use transform="matrix(0.029650364150014263,0,0,0.029650364150014263,29.62071378586425,0)" xlink:href="#bi"/></g><path d="M33 0v-248h34V0H33" id="bw"/><g id="G"><use transform="matrix(0.029650364150014263,0,0,0.029650364150014263,0,0)" xlink:href="#bw"/><use transform="matrix(0.029650364150014263,0,0,0.029650364150014263,2.965036415001426,0)" xlink:href="#bo"/><use transform="matrix(0.029650364150014263,0,0,0.029650364150014263,5.930072830002852,0)" xlink:href="#bi"/><use transform="matrix(0.029650364150014263,0,0,0.029650364150014263,11.860145660005704,0)" xlink:href="#bm"/></g><path d="M212-179c-10-28-35-45-73-45-59 0-87 40-87 99 0 60 29 101 89 101 43 0 62-24 78-52l27 14C228-24 195 4 139 4 59 4 22-46 18-125c-6-104 99-153 187-111 19 9 31 26 39 46" id="bx"/><path d="M24 0v-261h32V0H24" id="by"/><g id="H"><use transform="matrix(0.029650364150014263,0,0,0.029650364150014263,0,0)" xlink:href="#bx"/><use transform="matrix(0.029650364150014263,0,0,0.029650364150014263,7.679444314853694,0)" xlink:href="#bg"/><use transform="matrix(0.029650364150014263,0,0,0.029650364150014263,13.609517144856548,0)" xlink:href="#bm"/><use transform="matrix(0.029650364150014263,0,0,0.029650364150014263,22.474976025710813,0)" xlink:href="#bk"/><use transform="matrix(0.029650364150014263,0,0,0.029650364150014263,28.405048855713666,0)" xlink:href="#by"/><use transform="matrix(0.029650364150014263,0,0,0.029650364150014263,30.747427623564796,0)" xlink:href="#bi"/><use transform="matrix(0.029650364150014263,0,0,0.029650364150014263,36.677500453567646,0)" xlink:href="#bo"/><use transform="matrix(0.029650364150014263,0,0,0.029650364150014263,39.642536868569074,0)" xlink:href="#bi"/></g><g id="I"><use transform="matrix(0.029650364150014263,0,0,0.029650364150014263,0,0)" xlink:href="#bh"/><use transform="matrix(0.029650364150014263,0,0,0.029650364150014263,5.930072830002852,0)" xlink:href="#bu"/><use transform="matrix(0.029650364150014263,0,0,0.029650364150014263,11.860145660005704,0)" xlink:href="#bo"/><use transform="matrix(0.029650364150014263,0,0,0.029650364150014263,14.825182075007131,0)" xlink:href="#bu"/></g><path d="M106-169C34-169 62-67 57 0H25v-261h32l-1 103c12-21 28-36 61-36 89 0 53 116 60 194h-32v-121c2-32-8-49-39-48" id="bz"/><g id="J"><use transform="matrix(0.029650364150014263,0,0,0.029650364150014263,0,0)" xlink:href="#bu"/><use transform="matrix(0.029650364150014263,0,0,0.029650364150014263,5.930072830002852,0)" xlink:href="#bj"/><use transform="matrix(0.029650364150014263,0,0,0.029650364150014263,9.458466163854549,0)" xlink:href="#bl"/><use transform="matrix(0.029650364150014263,0,0,0.029650364150014263,14.795531710857118,0)" xlink:href="#bz"/><use transform="matrix(0.029650364150014263,0,0,0.029650364150014263,20.72560454085997,0)" xlink:href="#bt"/><use transform="matrix(0.029650364150014263,0,0,0.029650364150014263,23.0679833087111,0)" xlink:href="#bs"/><use transform="matrix(0.029650364150014263,0,0,0.029650364150014263,28.405048855713666,0)" xlink:href="#bi"/></g></defs></g></svg>